<mxfile host="app.diagrams.net" modified="2023-06-19T11:45:56.252Z" agent="Mozilla/5.0 (Windows NT 10.0; Win64; x64) AppleWebKit/537.36 (KHTML, like Gecko) Chrome/113.0.0.0 Safari/537.36" etag="ySu31yLvkV_82abKAysH" version="21.1.2" type="device">
  <diagram name="Pagina-1" id="3GGmdXZOMrh6fmqJ-L9A">
    <mxGraphModel dx="1050" dy="541" grid="1" gridSize="10" guides="1" tooltips="1" connect="1" arrows="1" fold="1" page="1" pageScale="1" pageWidth="827" pageHeight="1169" math="0" shadow="0">
      <root>
        <mxCell id="0" />
        <mxCell id="1" parent="0" />
        <mxCell id="zt_5tT_jKXm614_osgUy-1" value="" style="rounded=1;whiteSpace=wrap;html=1;" vertex="1" parent="1">
          <mxGeometry x="260" y="120" width="440" height="270" as="geometry" />
        </mxCell>
        <mxCell id="zt_5tT_jKXm614_osgUy-12" style="edgeStyle=orthogonalEdgeStyle;rounded=0;orthogonalLoop=1;jettySize=auto;html=1;entryX=0;entryY=0.5;entryDx=0;entryDy=0;entryPerimeter=0;" edge="1" parent="1" source="zt_5tT_jKXm614_osgUy-2" target="zt_5tT_jKXm614_osgUy-5">
          <mxGeometry relative="1" as="geometry" />
        </mxCell>
        <mxCell id="zt_5tT_jKXm614_osgUy-2" value="Profile Service" style="rounded=1;whiteSpace=wrap;html=1;" vertex="1" parent="1">
          <mxGeometry x="430" y="190" width="120" height="60" as="geometry" />
        </mxCell>
        <mxCell id="zt_5tT_jKXm614_osgUy-10" style="edgeStyle=orthogonalEdgeStyle;rounded=0;orthogonalLoop=1;jettySize=auto;html=1;exitX=1;exitY=0.5;exitDx=0;exitDy=0;entryX=0;entryY=0.5;entryDx=0;entryDy=0;entryPerimeter=0;" edge="1" parent="1" source="zt_5tT_jKXm614_osgUy-4" target="zt_5tT_jKXm614_osgUy-5">
          <mxGeometry relative="1" as="geometry" />
        </mxCell>
        <mxCell id="zt_5tT_jKXm614_osgUy-4" value="Room Service" style="rounded=1;whiteSpace=wrap;html=1;" vertex="1" parent="1">
          <mxGeometry x="430" y="300" width="120" height="60" as="geometry" />
        </mxCell>
        <mxCell id="zt_5tT_jKXm614_osgUy-5" value="MongoDB" style="shape=cylinder3;whiteSpace=wrap;html=1;boundedLbl=1;backgroundOutline=1;size=15;" vertex="1" parent="1">
          <mxGeometry x="740" y="230" width="60" height="80" as="geometry" />
        </mxCell>
        <mxCell id="zt_5tT_jKXm614_osgUy-13" style="edgeStyle=orthogonalEdgeStyle;rounded=0;orthogonalLoop=1;jettySize=auto;html=1;entryX=0;entryY=0.5;entryDx=0;entryDy=0;" edge="1" parent="1" source="zt_5tT_jKXm614_osgUy-6" target="zt_5tT_jKXm614_osgUy-4">
          <mxGeometry relative="1" as="geometry" />
        </mxCell>
        <mxCell id="zt_5tT_jKXm614_osgUy-16" style="edgeStyle=orthogonalEdgeStyle;rounded=0;orthogonalLoop=1;jettySize=auto;html=1;exitX=1;exitY=0.5;exitDx=0;exitDy=0;entryX=0;entryY=0.5;entryDx=0;entryDy=0;" edge="1" parent="1" source="zt_5tT_jKXm614_osgUy-6" target="zt_5tT_jKXm614_osgUy-2">
          <mxGeometry relative="1" as="geometry" />
        </mxCell>
        <mxCell id="zt_5tT_jKXm614_osgUy-6" value="Ingress" style="rounded=0;whiteSpace=wrap;html=1;" vertex="1" parent="1">
          <mxGeometry x="240" y="240" width="70" height="60" as="geometry" />
        </mxCell>
        <mxCell id="zt_5tT_jKXm614_osgUy-17" style="edgeStyle=orthogonalEdgeStyle;rounded=0;orthogonalLoop=1;jettySize=auto;html=1;exitX=1;exitY=0.5;exitDx=0;exitDy=0;entryX=0;entryY=0.5;entryDx=0;entryDy=0;" edge="1" parent="1" source="zt_5tT_jKXm614_osgUy-8" target="zt_5tT_jKXm614_osgUy-6">
          <mxGeometry relative="1" as="geometry" />
        </mxCell>
        <mxCell id="zt_5tT_jKXm614_osgUy-20" style="edgeStyle=orthogonalEdgeStyle;rounded=0;orthogonalLoop=1;jettySize=auto;html=1;entryX=0.5;entryY=1;entryDx=0;entryDy=0;" edge="1" parent="1" source="zt_5tT_jKXm614_osgUy-8" target="zt_5tT_jKXm614_osgUy-19">
          <mxGeometry relative="1" as="geometry" />
        </mxCell>
        <mxCell id="zt_5tT_jKXm614_osgUy-8" value="Frontend" style="rounded=1;whiteSpace=wrap;html=1;" vertex="1" parent="1">
          <mxGeometry x="80" y="240" width="120" height="60" as="geometry" />
        </mxCell>
        <mxCell id="zt_5tT_jKXm614_osgUy-18" value="Kubernetes cluster" style="text;html=1;strokeColor=none;fillColor=none;align=center;verticalAlign=middle;whiteSpace=wrap;rounded=0;fontSize=18;" vertex="1" parent="1">
          <mxGeometry x="412.5" y="130" width="155" height="30" as="geometry" />
        </mxCell>
        <mxCell id="zt_5tT_jKXm614_osgUy-19" value="" style="shape=image;verticalLabelPosition=bottom;labelBackgroundColor=default;verticalAlign=top;aspect=fixed;imageAspect=0;image=https://static-00.iconduck.com/assets.00/auth0-icon-512x512-3wef3www.png;" vertex="1" parent="1">
          <mxGeometry x="85" y="70" width="110" height="110" as="geometry" />
        </mxCell>
        <mxCell id="zt_5tT_jKXm614_osgUy-21" value="&lt;font style=&quot;font-size: 18px;&quot;&gt;Auth0&lt;/font&gt;" style="text;html=1;strokeColor=none;fillColor=none;align=center;verticalAlign=middle;whiteSpace=wrap;rounded=0;" vertex="1" parent="1">
          <mxGeometry x="110" y="50" width="60" height="30" as="geometry" />
        </mxCell>
      </root>
    </mxGraphModel>
  </diagram>
</mxfile>
